<?xml version="1.0" standalone="no"?><!DOCTYPE svg PUBLIC "-//W3C//DTD SVG 1.1//EN" "http://www.w3.org/Graphics/SVG/1.1/DTD/svg11.dtd"><svg t="1774632714692" class="icon" viewBox="0 0 1024 1024" version="1.1" xmlns="http://www.w3.org/2000/svg" p-id="1065" xmlns:xlink="http://www.w3.org/1999/xlink" width="200" height="200"><path d="M389.3504 1024a23.6032 23.6032 0 0 1-10.112-2.304c-12.416-5.8624-17.792-21.0432-12.2624-33.92l122.6752-281.5744c5.632-12.928 20.1728-18.5856 32.512-12.7488 12.3648 5.8624 17.7664 21.0432 12.2112 33.92l-122.6496 281.5744a24.6528 24.6528 0 0 1-22.3744 15.0528z" fill="#B0BEC5" p-id="1066"></path><path d="M634.7264 1024a24.4992 24.4992 0 0 1-22.3488-15.0528l-122.7264-281.5744c-5.5552-12.8768-0.0768-28.0576 12.2112-33.92 12.3392-5.8368 26.88-0.1536 32.512 12.7488l122.6752 281.5744c5.632 12.8768 0.1536 28.0576-12.1856 33.92a24.2432 24.2432 0 0 1-10.1376 2.304z" fill="#B0BEC5" p-id="1067"></path><path d="M94.976 76.7744h834.048v614.4H94.976z" fill="#D0D8DC" p-id="1068"></path><path d="M94.976 128.0256h834.048V153.6H94.976zM94.976 614.4256h834.048V640H94.976z" fill="#78909C" p-id="1069"></path><path d="M1002.6496 64.0256c0 35.1744-33.1008 64-73.6256 64H94.976c-40.4736 0-73.6256-28.8256-73.6256-64C21.3504 28.8256 54.5024 0 94.976 0h834.048c40.5504 0 73.6256 28.8256 73.6256 64.0256z" fill="#F78F1D" p-id="1070"></path><path d="M217.6256 601.6256a36.096 36.096 0 0 1-26.0608-11.264 39.7312 39.7312 0 0 1 0-54.3232l220.8512-230.4a35.9168 35.9168 0 0 1 29.056-11.136c10.7776 0.9728 20.6336 6.8096 26.9312 15.9488l97.3568 142.3104 214.656-223.9232a35.6352 35.6352 0 0 1 52.0192 0 39.5776 39.5776 0 0 1 0 54.272l-245.3504 255.9744c-7.68 8.0128-18.2784 12.0576-29.056 11.136a36.5824 36.5824 0 0 1-26.88-15.9488l-97.4336-142.2848-190.0288 198.3232c-7.2448 7.552-16.64 11.3152-26.0608 11.3152z" fill="#3D82C4" p-id="1071"></path><path d="M806.4 294.4256h-73.6c-20.3264 0-36.864-17.2032-36.864-38.4512 0-21.1712 16.512-38.3744 36.864-38.3744H806.4c20.3264 0 36.7616 17.2032 36.7616 38.3744 0.0256 21.248-16.4352 38.4512-36.7616 38.4512z" fill="#3D82C4" p-id="1072"></path><path d="M806.4 371.2256c-20.3776 0-36.8128-17.2032-36.8128-38.4256V255.9744c0-21.1712 16.4352-38.3744 36.8128-38.3744 20.3264 0 36.7616 17.2032 36.7616 38.3744V332.8c0.0256 21.2224-16.4352 38.4256-36.7616 38.4256z" fill="#3D82C4" p-id="1073"></path><path d="M1002.6496 703.9744c0 35.1744-33.1008 64-73.6256 64H94.976c-40.4736 0-73.6256-28.8256-73.6256-64s33.1776-64 73.6256-64h834.048c40.5504 0.0256 73.6256 28.8256 73.6256 64z" fill="#F78F1D" p-id="1074"></path><path d="M929.024 742.4H94.976c-40.4736 0-73.6256-17.28-73.6256-38.4256 0 35.1744 33.1776 64 73.6256 64h834.048c40.5504 0 73.6256-28.8256 73.6256-64 0 21.1456-33.0752 38.4256-73.6256 38.4256zM929.024 102.4H94.976C54.5024 102.4 21.3504 85.12 21.3504 64.0256c0 35.1744 33.1776 64 73.6256 64h834.048c40.5504 0 73.6256-28.8256 73.6256-64C1002.6496 85.12 969.5744 102.4 929.024 102.4z" fill="#F37020" p-id="1075"></path></svg>