<?xml version="1.0" standalone="no"?><!DOCTYPE svg PUBLIC "-//W3C//DTD SVG 1.1//EN" "http://www.w3.org/Graphics/SVG/1.1/DTD/svg11.dtd"><svg t="1774632727001" class="icon" viewBox="0 0 1024 1024" version="1.1" xmlns="http://www.w3.org/2000/svg" p-id="1224" xmlns:xlink="http://www.w3.org/1999/xlink" width="200" height="200"><path d="M1007.709091 246.690909h-34.909091c-15.127273 0-22.109091-17.454545-11.636364-27.927273l24.436364-25.6c6.981818-6.981818 6.981818-17.454545 0-23.272727L856.436364 40.727273c-6.981818-6.981818-17.454545-6.981818-23.272728 0l-24.436363 25.6c-10.472727 10.472727-27.927273 3.490909-27.927273-11.636364v-34.909091c0-9.309091-6.981818-16.290909-16.290909-16.290909H579.490909c-9.309091 0-16.290909 6.981818-16.290909 16.290909v34.909091c0 15.127273-17.454545 22.109091-27.927273 11.636364l-24.436363-25.6c-6.981818-6.981818-17.454545-6.981818-23.272728 0L357.236364 169.890909c-6.981818 6.981818-6.981818 17.454545 0 23.272727l24.436363 25.6c10.472727 10.472727 3.490909 27.927273-11.636363 27.927273h-34.909091c-9.309091 0-16.290909 6.981818-16.290909 16.290909v183.854546c0 9.309091 6.981818 16.290909 16.290909 16.290909h34.909091c15.127273 0 22.109091 17.454545 11.636363 27.927272l-24.436363 25.6c-6.981818 6.981818-6.981818 17.454545 0 23.272728l38.4 38.4 16.290909 16.290909 74.472727 74.472727c6.981818 6.981818 17.454545 6.981818 23.272727 0l24.436364-25.6c10.472727-10.472727 27.927273-3.490909 27.927273 11.636364v34.909091c0 9.309091 6.981818 16.290909 16.290909 16.290909h182.690909c9.309091 0 16.290909-6.981818 16.290909-16.290909v-34.909091c0-15.127273 17.454545-22.109091 27.927273-11.636364l24.436363 25.6c6.981818 6.981818 17.454545 6.981818 23.272728 0l129.163636-130.327273c6.981818-6.981818 6.981818-17.454545 0-23.272727l-24.436364-25.6c-10.472727-10.472727-3.490909-27.927273 11.636364-27.927273h34.909091c9.309091 0 16.290909-6.981818 16.290909-16.290909V262.981818c3.490909-8.145455-3.490909-16.290909-12.8-16.290909z m-337.454546-3.490909c87.272727 0 150.109091 100.072727 82.618182 190.836364l-3.490909 3.490909c-90.763636 67.490909-190.836364 3.490909-190.836363-82.618182 1.163636-61.672727 51.2-111.709091 111.70909-111.709091z" fill="#488CFE" p-id="1225"></path><path d="M512 233.890909l-1.163636-2.327273-107.054546-108.218181-58.181818 58.181818 65.163636 65.163636h-91.927272v217.6h91.927272l-65.163636 64 50.036364 50.036364 115.2-115.2 1.163636-2.327273zM737.745455 501.527273l-2.327273-1.163637H508.509091l-1.163636 1.163637-94.254546 94.254545 86.109091 86.109091 64-65.163636v91.927272H779.636364V616.727273l65.163636 65.163636 36.072727-37.236364z" fill="#2F80D4" p-id="1226"></path><path d="M492.218182 354.909091c0 100.072727 80.290909 180.363636 180.363636 180.363636s180.363636-80.290909 180.363637-180.363636S771.490909 174.545455 671.418182 174.545455s-179.2 81.454545-179.2 180.363636z m289.745454 0c0 61.672727-50.036364 111.709091-111.709091 111.709091S558.545455 416.581818 558.545455 354.909091s50.036364-111.709091 111.70909-111.709091 111.709091 50.036364 111.709091 111.709091z" fill="#FFCE54" p-id="1227"></path><path d="M897.163636 350.254545c-8.145455 0-15.127273-6.981818-15.127272-15.127272 0-104.727273-84.945455-189.672727-188.509091-189.672728-8.145455 0-15.127273-6.981818-15.127273-15.127272 0-8.145455 6.981818-15.127273 15.127273-15.127273 121.018182 0 218.763636 98.909091 218.763636 219.927273 0 8.145455-5.818182 15.127273-15.127273 15.127272z" fill="#4CA4FF" p-id="1228"></path><path d="M454.981818 274.618182h-4.654545c-15.127273 0-22.109091-17.454545-11.636364-27.927273l3.490909-3.490909c6.981818-6.981818 6.981818-17.454545 0-23.272727l-79.127273-79.127273c-6.981818-6.981818-17.454545-6.981818-23.272727 0l-3.490909 3.490909c-10.472727 10.472727-27.927273 3.490909-27.927273-11.636364V128c0-9.309091-6.981818-16.290909-16.290909-16.290909h-111.709091c-9.309091 0-16.290909 6.981818-16.290909 16.290909v4.654545c0 15.127273-17.454545 22.109091-27.927272 11.636364l-3.49091-3.490909c-6.981818-6.981818-17.454545-6.981818-23.272727 0l-79.127273 79.127273c-6.981818 6.981818-6.981818 17.454545 0 23.272727l3.49091 3.490909c10.472727 10.472727 3.490909 27.927273-11.636364 27.927273h-5.818182c-9.309091 0-16.290909 8.145455-16.290909 16.290909v111.709091c0 9.309091 6.981818 16.290909 16.290909 16.290909h4.654546c15.127273 0 22.109091 17.454545 11.636363 27.927273l-3.490909 3.490909c-6.981818 6.981818-6.981818 17.454545 0 23.272727l79.127273 79.127273c6.981818 6.981818 17.454545 6.981818 23.272727 0l3.490909-3.490909c10.472727-10.472727 27.927273-3.490909 27.927273 11.636363v4.654546c0 9.309091 6.981818 16.290909 16.290909 16.290909H290.909091c9.309091 0 16.290909-6.981818 16.290909-16.290909v-4.654546c0-15.127273 17.454545-22.109091 27.927273-11.636363l3.490909 3.490909c6.981818 6.981818 17.454545 6.981818 23.272727 0l79.127273-79.127273c6.981818-6.981818 6.981818-17.454545 0-23.272727l-3.490909-3.490909c-10.472727-10.472727-3.490909-27.927273 11.636363-27.927273h4.654546c9.309091 0 16.290909-6.981818 16.290909-16.290909V290.909091c1.163636-8.145455-6.981818-16.290909-15.127273-16.290909z m-167.563636 128c-77.963636 57.018182-165.236364-30.254545-108.218182-108.218182l3.490909-3.490909c77.963636-57.018182 165.236364 30.254545 108.218182 108.218182 0 1.163636-1.163636 2.327273-3.490909 3.490909z" fill="#FF8449" p-id="1229"></path><path d="M235.054545 226.909091c-66.327273 0-119.854545 53.527273-119.854545 121.018182s53.527273 121.018182 119.854545 121.018182 119.854545-53.527273 119.854546-121.018182-53.527273-121.018182-119.854546-121.018182z m0 194.327273c-40.727273 0-74.472727-33.745455-74.472727-74.472728 0-40.727273 33.745455-74.472727 74.472727-74.472727 40.727273 0 74.472727 33.745455 74.472728 74.472727 0 40.727273-32.581818 74.472727-74.472728 74.472728z" fill="#FFCE54" p-id="1230"></path><path d="M253.672727 516.654545c-8.145455 0-15.127273-6.981818-15.127272-15.127272 0-8.145455 6.981818-15.127273 15.127272-15.127273 66.327273 0 121.018182-54.690909 121.018182-121.018182 0-8.145455 6.981818-15.127273 15.127273-15.127273 8.145455 0 15.127273 6.981818 15.127273 15.127273 0 82.618182-67.490909 151.272727-151.272728 151.272727zM81.454545 346.763636c-8.145455 0-15.127273-6.981818-15.127272-15.127272 0-83.781818 67.490909-152.436364 151.272727-152.436364 8.145455 0 15.127273 6.981818 15.127273 15.127273 0 8.145455-6.981818 15.127273-15.127273 15.127272C151.272727 209.454545 96.581818 264.145455 96.581818 330.472727c0 10.472727-6.981818 16.290909-15.127273 16.290909z" fill="#FFA792" p-id="1231"></path><path d="M841.309091 705.163636h-4.654546c-15.127273 0-22.109091-17.454545-11.636363-27.927272l3.490909-3.490909c6.981818-6.981818 6.981818-17.454545 0-23.272728l-79.127273-79.127272c-6.981818-6.981818-17.454545-6.981818-23.272727 0l-3.490909 3.490909c-10.472727 10.472727-27.927273 3.490909-27.927273-11.636364V558.545455c0-9.309091-6.981818-16.290909-16.290909-16.29091h-111.709091c-9.309091 0-16.290909 6.981818-16.290909 16.29091v4.654545c0 15.127273-17.454545 22.109091-27.927273 11.636364l-3.490909-3.490909c-6.981818-6.981818-17.454545-6.981818-23.272727 0l-79.127273 79.127272c-6.981818 6.981818-6.981818 17.454545 0 23.272728l3.490909 3.490909c10.472727 10.472727 3.490909 27.927273-11.636363 27.927272h-4.654546c-9.309091 0-16.290909 6.981818-16.290909 16.290909v111.709091c0 9.309091 6.981818 16.290909 16.290909 16.290909h4.654546c15.127273 0 22.109091 17.454545 11.636363 27.927273l-3.490909 3.490909c-6.981818 6.981818-6.981818 17.454545 0 23.272728l79.127273 79.127272c6.981818 6.981818 17.454545 6.981818 23.272727 0l3.490909-3.490909c10.472727-10.472727 27.927273-3.490909 27.927273 11.636364v4.654545c0 9.309091 6.981818 16.290909 16.290909 16.290909h111.709091c9.309091 0 16.290909-6.981818 16.290909-16.290909v-4.654545c0-15.127273 17.454545-22.109091 27.927273-11.636364l3.490909 3.490909c6.981818 6.981818 17.454545 6.981818 23.272727 0l79.127273-79.127272c6.981818-6.981818 6.981818-17.454545 0-23.272728l-3.490909-3.490909c-10.472727-10.472727-3.490909-27.927273 11.636363-27.927273h4.654546c9.309091 0 16.290909-6.981818 16.290909-16.290909V721.454545c0-8.145455-6.981818-16.290909-16.290909-16.290909zM674.909091 833.163636c-77.963636 57.018182-165.236364-30.254545-108.218182-108.218181l3.490909-3.49091c77.963636-57.018182 165.236364 30.254545 108.218182 108.218182l-3.490909 3.490909z" fill="#FF8449" p-id="1232"></path><path d="M622.545455 657.454545c-66.327273 0-119.854545 53.527273-119.854546 121.018182s53.527273 121.018182 119.854546 121.018182 119.854545-53.527273 119.854545-121.018182-53.527273-121.018182-119.854545-121.018182z m0 194.327273c-40.727273 0-74.472727-33.745455-74.472728-74.472727 0-40.727273 33.745455-74.472727 74.472728-74.472727 40.727273 0 74.472727 33.745455 74.472727 74.472727 0 41.890909-33.745455 74.472727-74.472727 74.472727z" fill="#FFCE54" p-id="1233"></path><path d="M640 947.2c-8.145455 0-15.127273-6.981818-15.127273-15.127273s6.981818-15.127273 15.127273-15.127272c66.327273 0 121.018182-54.690909 121.018182-121.018182 0-8.145455 6.981818-15.127273 15.127273-15.127273s15.127273 6.981818 15.127272 15.127273c1.163636 83.781818-67.490909 151.272727-151.272727 151.272727zM465.454545 774.981818c-8.145455 0-15.127273-6.981818-15.127272-15.127273 0-83.781818 67.490909-152.436364 151.272727-152.436363 8.145455 0 15.127273 6.981818 15.127273 15.127273s-6.981818 15.127273-15.127273 15.127272c-66.327273 0-121.018182 54.690909-121.018182 121.018182 0 9.309091-6.981818 16.290909-15.127273 16.290909z" fill="#FFA792" p-id="1234"></path><path d="M459.589818 471.074909l-232.727273 232.727273-10.472727 10.472727-44.218182 44.218182 60.509091 60.509091 287.418182-287.418182c16.290909-16.290909 16.290909-44.218182 0-60.509091-16.290909-17.454545-44.218182-17.454545-60.509091 0z m39.563637 38.4c0 9.309091-8.145455 17.454545-17.454546 17.454546s-17.454545-8.145455-17.454545-17.454546 8.145455-17.454545 17.454545-17.454545c10.472727 0 17.454545 8.145455 17.454546 17.454545z" fill="#E5E5DA" p-id="1235"></path><path d="M172.171636 759.656727l33.745455-33.745454c11.636364 6.981818 23.272727 15.127273 33.745454 25.6l1.163637 1.163636c9.309091 9.309091 17.454545 20.945455 23.272727 32.581818l-32.581818 33.745455-59.345455-59.345455z" fill="#D1D0BF" p-id="1236"></path><path d="M83.735273 824.820364l-47.709091 47.709091c-4.654545 4.654545-13.963636 1.163636-13.963637-4.654546-3.490909-33.745455 6.981818-69.818182 33.745455-95.418182 46.545455-46.545455 122.181818-45.381818 167.563636 3.490909 41.890909 45.381818 41.890909 114.036364-1.163636 159.418182-26.763636 27.927273-62.836364 39.563636-97.745455 34.909091-8.145455-1.163636-10.472727-10.472727-5.818181-15.127273l47.709091-47.709091c3.490909-3.490909 3.490909-8.145455 0-11.636363l-70.981819-72.145455c-3.490909-2.327273-8.145455-2.327273-11.636363 1.163637z" fill="#E5E5DA" p-id="1237"></path><path d="M428.171636 571.147636c0 2.327273-1.163636 3.490909-2.327272 5.818182l-159.418182 158.254546c-3.490909 3.490909-8.145455 3.490909-10.472727 0-3.490909-3.490909-3.490909-8.145455 0-10.472728l159.418181-159.418181c3.490909-3.490909 8.145455-3.490909 10.472728 0 1.163636 1.163636 2.327273 3.490909 2.327272 5.818181zM183.808 812.020364c0 1.163636-1.163636 3.490909-2.327273 4.654545-2.327273 2.327273-6.981818 2.327273-9.309091 0l-10.472727-10.472727c-2.327273-2.327273-2.327273-6.981818 0-9.309091 2.327273-2.327273 6.981818-2.327273 9.309091 0l10.472727 10.472727c1.163636 2.327273 2.327273 3.490909 2.327273 4.654546z" fill="#D1D0BF" p-id="1238"></path></svg>