<?xml version="1.0" standalone="no"?><!DOCTYPE svg PUBLIC "-//W3C//DTD SVG 1.1//EN" "http://www.w3.org/Graphics/SVG/1.1/DTD/svg11.dtd"><svg t="1774632737291" class="icon" viewBox="0 0 1416 1024" version="1.1" xmlns="http://www.w3.org/2000/svg" p-id="1719" xmlns:xlink="http://www.w3.org/1999/xlink" width="276.5625" height="200"><path d="M760.663149 467.270809l622.679149 245.651063c31.003234 13.246638 31.003234 32.768 0 45.883915l-622.679149 245.781787c-31.025021 13.246638-83.57583 13.246638-114.731575 0L23.274213 758.805787c-31.025021-13.246638-31.025021-32.768 0-45.883915l622.657361-245.651063c31.025021-11.372936 83.57583-11.372936 114.731575 0z" fill="#859AF4" p-id="1720"></path><path d="M760.663149 450.79966l622.679149 245.672851c31.003234 13.246638 31.003234 32.768 0 45.883915l-622.679149 246.065021c-31.025021 13.094128-83.57583 13.094128-114.731575 0L23.274213 742.617872c-31.025021-12.985191-31.025021-32.768 0-45.883915l622.657361-245.781787c31.025021-11.50366 83.57583-11.50366 114.731575-0.15251z" fill="#859AF4" p-id="1721"></path><path d="M760.663149 434.502809l622.679149 245.781787c31.003234 13.115915 31.003234 32.768 0 45.883915l-622.679149 245.651063c-31.025021 13.246638-83.57583 13.246638-114.731575 0L23.274213 726.168511c-31.025021-13.246638-31.025021-32.768 0-45.883915l622.657361-245.781787c31.025021-11.50366 83.57583-11.50366 114.731575 0z" fill="#859AF4" p-id="1722"></path><path d="M760.663149 418.18417l622.679149 245.803575c31.003234 12.963404 31.003234 32.746213 0 45.862127l-622.679149 245.672851c-31.025021 13.224851-83.57583 13.224851-114.731575 0L23.274213 709.719149c-31.025021-13.246638-31.025021-32.768 0-45.883915l622.657361-245.651064c31.025021-11.50366 83.57583-11.50366 114.731575 0z" fill="#859AF4" p-id="1723"></path><path d="M760.663149 401.734809l622.679149 245.803574c31.003234 13.224851 31.003234 32.746213 0 45.862128l-622.679149 245.672851c-31.025021 13.224851-83.57583 13.224851-114.731575 0L23.274213 693.400511c-31.025021-13.115915-31.025021-32.768 0-45.862128l622.657361-245.803574c31.025021-11.50366 83.57583-11.50366 114.731575 0z" fill="#859AF4" p-id="1724"></path><path d="M760.663149 385.41617l622.679149 245.803575c31.003234 13.224851 31.003234 32.768 0 45.862127l-622.679149 245.672851c-31.025021 12.963404-83.57583 12.963404-114.731575 0L23.274213 677.081872c-31.025021-12.963404-31.025021-32.768 0-45.862127L645.931574 385.41617c31.025021-11.50366 83.57583-11.50366 114.731575 0z" fill="#859AF4" p-id="1725"></path><path d="M760.663149 369.097532l622.679149 244.191319c31.003234 13.246638 31.003234 32.768 0 45.883915l-622.679149 244.191319c-31.025021 13.224851-83.57583 13.224851-114.731575 0L23.274213 659.172766c-31.025021-13.246638-31.025021-32.768 0-45.883915l622.657361-244.191319c31.025021-11.634383 83.57583-11.634383 114.731575 0z" fill="#859AF4" p-id="1726"></path><path d="M760.663149 352.517447l622.679149 244.060596c31.003234 13.246638 31.003234 32.768 0 45.862127L760.641362 886.522553c-31.025021 13.246638-83.57583 13.246638-114.731575 0L23.274213 642.44017c-31.025021-13.224851-31.025021-32.746213 0-45.862127L645.931574 352.517447c31.025021-11.372936 83.57583-11.372936 114.731575 0z" fill="#859AF4" p-id="1727"></path><path d="M760.663149 336.198809l622.679149 244.191319c31.003234 13.115915 31.003234 32.768 0 45.883915l-622.679149 244.060595c-31.025021 13.224851-83.57583 13.224851-114.731575 0L23.274213 626.274043c-31.025021-13.246638-31.025021-32.768 0-45.883915l622.657361-244.191319c31.025021-11.372936 83.57583-11.372936 114.731575 0z" fill="#859AF4" p-id="1728"></path><path d="M760.663149 319.749447l622.679149 244.191319c31.003234 13.246638 31.003234 32.768 0 45.883915l-622.679149 244.322042c-31.025021 12.963404-83.57583 12.963404-114.731575 0L23.274213 609.824681c-31.025021-13.246638-31.025021-32.768 0-45.883915L645.931574 319.618723c31.025021-11.372936 83.57583-11.372936 114.731575 0.130724z" fill="#D4CDA7" p-id="1729"></path><path d="M760.663149 319.749447l622.679149 244.191319c31.003234 13.246638 31.003234 32.768 0 45.883915l-622.679149 244.322042c-31.025021 12.963404-83.57583 12.963404-114.731575 0L23.274213 609.824681c-31.025021-13.246638-31.025021-32.768 0-45.883915L645.931574 319.618723c31.025021-11.372936 83.57583-11.372936 114.731575 0.130724z" fill="#4868F8" p-id="1730"></path><path d="M741.947915 591.893787c5.076426 5.490383 15.381787 10.305362 27.01617 12.309787 18.301277 3.202723 37.038298-0.413957 49.740255-9.76068 26.624-19.652085 23.813447-56.842894 12.048341-69.414128l-88.804766 66.886808zM318.556596 142.423149a11.939404 11.939404 0 0 1 9.216-7.211575c4.139574-0.675404 8.562383 1.067574 11.503659 4.401022l64.599149 71.026383c8.562383 9.477447 20.196766 15.251064 32.506553 16.449361a43.051574 43.051574 0 0 0 33.029447-10.566808c18.453787-16.732596 18.453787-46.537532 0-66.211404l-66.886808-71.135319a13.617021 13.617021 0 0 1-3.594894-12.309788 12.723745 12.723745 0 0 1 7.886979-9.499234 166.51983 166.51983 0 0 1 65.797447-10.022127c47.060426 2.004426 92.39966 22.462638 127.041361 57.910468 49.348085 50.154213 67.409702 121.964936 46.668256 183.731744l207.697702 218.525958c26.079319 27.40834 26.471489 84.120511-12.179064 112.204255-19.259915 13.900255-45.992851 18.998468-73.009021 14.030979-20.327489-3.725617-38.258383-12.963404-49.217362-25.142468l-194.712511-216.782979c-16.994043 2.963064-34.641702 3.224511-52.158638 0.806128-45.862128-6.144-87.998638-29.412766-119.154383-64.991319-46.406809-53.226213-59.914894-125.298383-35.033872-185.19149z" fill="#E3B845" p-id="1731"></path><path d="M747.307574 589.083234c5.076426 5.490383 15.381787 10.305362 27.016171 12.309787 18.301277 3.202723 37.038298-0.39217 49.740255-9.760681 26.602213-19.652085 23.79166-56.842894 12.026553-69.414127L747.307574 589.126809zM324.046979 139.612596a11.939404 11.939404 0 0 1 9.216-7.211575c4.139574-0.675404 8.562383 1.067574 11.503659 4.401022l64.599149 71.026383c8.562383 9.477447 20.196766 15.251064 32.484766 16.449361a42.899064 42.899064 0 0 0 33.029447-10.566808c18.453787-16.580085 18.453787-46.537532 0-66.211405l-66.865021-71.135319a13.617021 13.617021 0 0 1-3.594894-12.309787 12.462298 12.462298 0 0 1 7.886979-9.499234 164.145021 164.145021 0 0 1 65.797447-10.022128c47.060426 2.004426 92.39966 22.462638 127.019574 57.910468 49.369872 50.001702 67.409702 121.964936 46.690043 183.753532l207.697702 218.525958c26.057532 27.386553 26.471489 84.098723-12.200851 112.182468-19.238128 13.900255-45.971064 18.998468-72.987234 14.052766-20.327489-3.747404-38.258383-12.985191-49.239149-25.142468l-194.821447-216.652256c-16.994043 2.941277-34.641702 3.202723-52.158638 0.806128-45.883915-6.165787-88.020426-29.412766-119.176171-64.991319-46.406809-53.378723-59.914894-125.32017-34.881361-185.365787z" fill="#E3B845" p-id="1732"></path><path d="M752.77617 586.425191c5.098213 5.468596 15.381787 10.283574 27.01617 12.288 18.323064 3.224511 37.038298-0.39217 49.762043-9.76068 26.602213-19.652085 23.79166-56.842894 12.026553-69.414128l-88.804766 66.886808zM329.515574 136.802043a11.939404 11.939404 0 0 1 9.237788-7.211575c4.139574-0.653617 8.562383 1.067574 11.503659 4.401021l64.577362 71.026383c8.562383 9.477447 20.196766 15.251064 32.506553 16.449362a42.899064 42.899064 0 0 0 33.029447-10.566808c18.453787-16.580085 18.453787-46.537532 0-66.211405l-66.865021-71.135319a13.617021 13.617021 0 0 1-3.616681-12.309787 12.462298 12.462298 0 0 1 7.886979-9.499234 164.145021 164.145021 0 0 1 65.797446-10.022128c47.060426 2.004426 92.421447 22.462638 127.063149 57.910468 49.326298 50.154213 67.387915 121.964936 46.668256 183.753532l207.675915 218.525958c26.079319 27.40834 26.493277 84.098723-12.157277 112.204255-19.259915 13.878468-46.014638 18.954894-73.030809 14.030979-20.327489-3.747404-38.236596-12.985191-49.217361-25.142468l-194.843234-216.652256c-16.994043 2.941277-34.641702 3.202723-52.158639 0.806128-45.862128-6.165787-87.998638-29.412766-119.154383-64.991319-46.406809-53.226213-59.914894-125.32017-34.903149-185.365787z" fill="#E3B845" p-id="1733"></path><path d="M758.13583 583.614638c5.076426 5.468596 15.381787 10.283574 27.01617 12.288 18.301277 3.224511 37.038298-0.39217 49.740255-9.760681 26.624-19.652085 23.813447-56.821106 12.048341-69.39234l-88.804766 66.865021zM334.875234 134.144a11.939404 11.939404 0 0 1 9.216-7.233362c4.139574-0.653617 8.562383 1.089362 11.50366 4.422809l64.599149 71.004596c8.562383 9.499234 20.196766 15.251064 32.484766 16.449361a42.899064 42.899064 0 0 0 33.051234-10.566808c18.453787-16.580085 18.453787-46.537532 0-66.189617l-66.886809-71.157107a13.617021 13.617021 0 0 1-3.594894-12.288 12.462298 12.462298 0 0 1 7.886979-9.499234 164.145021 164.145021 0 0 1 65.797447-10.022127c47.060426 1.982638 92.39966 22.440851 127.041362 57.88868 49.348085 50.154213 67.409702 121.964936 46.668255 183.753532l207.697702 218.525958c26.079319 27.40834 26.471489 84.098723-12.179064 112.204255-19.259915 13.900255-45.992851 18.976681-73.009021 14.030979-20.327489-3.747404-38.258383-12.985191-49.239149-25.142468l-194.821447-216.652256c-16.994043 2.941277-34.641702 3.224511-52.158638 0.806128-45.883915-6.144-87.998638-29.412766-119.17617-64.991319-46.406809-53.378723-59.762383-125.450894-34.881362-185.344z" fill="#E3B845" p-id="1734"></path><path d="M763.604426 580.934809c5.098213 5.490383 15.381787 10.305362 27.01617 12.309787 18.323064 3.202723 37.038298-0.413957 49.762042-9.782468 26.602213-19.652085 23.79166-56.821106 12.026553-69.392341l-88.804765 66.865022zM340.34383 131.333447a11.939404 11.939404 0 0 1 9.237787-7.233362c4.139574-0.653617 8.562383 1.089362 11.50366 4.422809l64.599149 71.004595c8.540596 9.499234 20.174979 15.251064 32.484765 16.449362a42.899064 42.899064 0 0 0 33.029447-10.566808c18.453787-16.580085 18.453787-46.537532 0-66.189617l-66.865021-71.157107a13.617021 13.617021 0 0 1-3.616681-12.288 12.462298 12.462298 0 0 1 7.908766-9.499234 164.145021 164.145021 0 0 1 65.797447-10.022128c47.060426 1.982638 92.377872 22.440851 127.019574 57.888681 49.369872 50.154213 67.409702 121.964936 46.690043 183.753532l207.675915 218.525958c26.079319 27.40834 26.493277 84.098723-12.157277 112.204255-19.259915 13.900255-46.014638 18.976681-73.030808 14.030979-20.327489-3.747404-38.236596-12.963404-49.195575-25.142468l-194.865021-216.652256c-16.994043 2.941277-34.641702 3.224511-52.158638 0.806128-45.862128-6.144-87.976851-29.412766-119.154383-64.991319-46.406809-53.226213-59.914894-125.298383-34.903149-185.344z" fill="#E3B845" p-id="1735"></path><path d="M768.964085 578.124255c5.076426 5.490383 15.381787 10.305362 27.01617 12.309788 18.301277 3.202723 37.038298-0.413957 49.740256-9.760681 26.624-19.673872 23.813447-56.864681 12.04834-69.414128l-88.804766 66.865021zM345.703489 128.653617a11.939404 11.939404 0 0 1 9.216-7.233362c4.139574-0.653617 8.562383 1.089362 11.50366 4.422809l64.599149 71.026383c8.562383 9.477447 20.196766 15.229277 32.506553 16.427574a42.899064 42.899064 0 0 0 33.029447-10.566808c18.453787-16.558298 18.453787-46.537532 0-66.189617l-66.886809-71.135319a13.617021 13.617021 0 0 1-3.594893-12.309788 12.462298 12.462298 0 0 1 7.886978-9.499234 164.145021 164.145021 0 0 1 65.797447-10.022127c47.060426 2.004426 92.39966 22.440851 127.041362 57.888681 49.348085 50.154213 67.409702 121.964936 46.668255 183.753531l207.697702 218.525958c26.079319 27.40834 26.471489 84.098723-12.179063 112.204255-19.259915 13.900255-45.992851 18.976681-73.009022 14.030979-20.327489-3.747404-38.258383-12.963404-49.217361-25.142468l-194.843234-216.630468c-16.994043 2.941277-34.641702 3.202723-52.158639 0.78434-45.862128-6.144-87.998638-29.412766-119.154383-64.991319-46.276085-53.356936-59.78417-125.429106-34.903149-185.344z" fill="#E3B845" p-id="1736"></path><path d="M774.454468 575.313702c5.076426 5.490383 15.381787 10.305362 27.01617 12.309787 18.301277 3.202723 37.038298-0.413957 49.740256-9.76068 26.602213-19.673872 23.79166-56.842894 12.026553-69.414128l-88.782979 66.886808zM351.193872 125.843064a11.939404 11.939404 0 0 1 9.216-7.211575c4.139574-0.675404 8.562383 1.067574 11.50366 4.401022l64.599149 71.026383c8.562383 9.477447 20.196766 15.251064 32.484766 16.427574a42.899064 42.899064 0 0 0 33.029447-10.566808c18.453787-16.558298 18.453787-46.537532 0-66.189617l-66.865022-71.13532a13.617021 13.617021 0 0 1-3.594893-12.309787 12.462298 12.462298 0 0 1 7.886978-9.499234 164.145021 164.145021 0 0 1 65.797447-10.022128c47.060426 2.004426 92.39966 22.462638 127.019575 57.910469 49.369872 50.132426 67.409702 121.964936 46.690042 183.731744l207.697702 218.525958c26.057532 27.40834 26.471489 84.098723-12.179063 112.204255-19.259915 13.900255-46.014638 18.976681-73.009022 14.030979-20.327489-3.747404-38.258383-12.963404-49.239149-25.142468l-194.821446-216.630468c-16.994043 2.941277-34.641702 3.202723-52.158639 0.806127-45.883915-6.165787-88.020426-29.412766-119.17617-65.013106-46.406809-53.226213-59.914894-125.298383-34.881362-185.344z" fill="#E3B845" p-id="1737"></path><path d="M779.923064 572.633872c5.098213 5.490383 15.381787 10.305362 27.01617 12.309788 18.323064 3.202723 37.038298-0.39217 49.762043-9.760681 26.602213-19.652085 23.79166-56.842894 12.026553-69.414128l-88.804766 66.886809zM356.662468 123.163234a11.939404 11.939404 0 0 1 9.237787-7.211574c4.139574-0.653617 8.562383 1.067574 11.50366 4.401021l64.577362 71.026383c8.562383 9.477447 20.196766 15.251064 32.506553 16.449362a42.899064 42.899064 0 0 0 33.029447-10.566809c18.453787-16.580085 18.453787-46.537532 0-66.211404L440.652255 59.914894a13.617021 13.617021 0 0 1-3.616681-12.309788 12.462298 12.462298 0 0 1 7.886979-9.499234 164.145021 164.145021 0 0 1 65.797447-10.022127c47.082213 2.004426 92.421447 22.462638 127.063149 57.910468 49.348085 50.154213 67.387915 121.964936 46.668255 183.753532l207.675915 218.525957c26.079319 27.40834 26.493277 84.098723-12.157276 112.204255-19.259915 13.878468-46.014638 18.954894-73.030809 14.030979-20.327489-3.747404-38.236596-12.985191-49.217362-25.142468l-194.843234-216.652255c-16.994043 2.941277-34.641702 3.202723-52.158638 0.806127-45.862128-6.165787-87.976851-29.412766-119.154383-64.991319-46.406809-53.378723-59.914894-125.450894-34.903149-185.365787z" fill="#E3B845" p-id="1738"></path><path d="M785.282723 569.823319c5.076426 5.490383 15.381787 10.305362 27.016171 12.309787 18.301277 3.202723 37.038298-0.39217 49.740255-9.76068 26.624-19.652085 23.813447-56.842894 12.04834-69.414128l-88.804766 66.886808zM362.022128 120.352681a11.939404 11.939404 0 0 1 9.216-7.211575c4.139574-0.653617 8.562383 1.067574 11.503659 4.401022l64.599149 71.026383c8.562383 9.499234 20.196766 15.251064 32.484766 16.449361a42.899064 42.899064 0 0 0 33.051234-10.566808c18.453787-16.580085 18.453787-46.537532 0-66.211404l-66.886808-71.13532a13.617021 13.617021 0 0 1-3.594894-12.309787 12.462298 12.462298 0 0 1 7.886979-9.499234 164.145021 164.145021 0 0 1 65.797447-10.022128c47.060426 2.004426 92.39966 22.462638 127.041361 57.910469 49.348085 50.154213 67.409702 121.964936 46.668256 183.753531l207.697702 218.525958c26.079319 27.40834 26.471489 84.098723-12.179064 112.204255-19.259915 13.878468-45.992851 18.954894-73.009021 14.030979-20.327489-3.747404-38.258383-12.985191-49.217362-25.142468l-194.843234-216.652255c-16.994043 2.941277-34.641702 3.202723-52.158638 0.806127-45.862128-6.165787-87.998638-29.412766-119.176171-64.991319-46.406809-53.378723-59.762383-125.32017-34.881361-185.365787z" fill="#E3B845" p-id="1739"></path><path d="M790.751319 567.165277c5.098213 5.468596 15.381787 10.283574 27.01617 12.288 18.323064 3.224511 37.038298-0.39217 49.762043-9.760681 26.602213-19.652085 23.79166-56.821106 12.026553-69.392341l-88.804766 66.865022zM367.490723 117.694638a11.939404 11.939404 0 0 1 9.237788-7.233361c4.139574-0.653617 8.562383 1.089362 11.503659 4.422808l64.599149 71.004596c8.540596 9.499234 20.174979 15.251064 32.484766 16.449362a42.899064 42.899064 0 0 0 33.029447-10.566809c18.453787-16.580085 18.453787-46.537532 0-66.189617l-66.865021-71.157106a13.617021 13.617021 0 0 1-3.616681-12.288 12.462298 12.462298 0 0 1 7.908766-9.499234 164.145021 164.145021 0 0 1 65.797447-10.022128c47.060426 1.982638 92.377872 22.440851 127.019574 57.888681 49.369872 50.154213 67.409702 121.964936 46.690043 183.753532l207.675914 218.525957c26.079319 27.40834 26.493277 84.098723-12.157276 112.204255-19.259915 13.900255-46.014638 18.976681-73.030809 14.030979-20.327489-3.747404-38.236596-12.985191-49.195574-25.142468l-194.865021-216.782979c-16.994043 2.941277-34.641702 3.202723-52.136851 0.806128-45.883915-6.144-88.020426-29.412766-119.176171-64.991319-46.406809-53.226213-59.914894-125.32017-34.903149-185.213277z" fill="#E3B845" p-id="1740"></path><path d="M796.110979 564.354723c5.076426 5.468596 15.381787 10.283574 27.01617 12.288 18.301277 3.224511 37.038298-0.39217 49.740255-9.76068 26.624-19.652085 23.813447-56.821106 12.048341-69.392341l-88.804766 66.865021zM372.850383 114.884085a11.939404 11.939404 0 0 1 9.237787-7.233362c4.139574-0.653617 8.540596 1.089362 11.481873 4.422809l64.599148 71.026383c8.562383 9.477447 20.196766 15.229277 32.506554 16.427574a42.899064 42.899064 0 0 0 33.029446-10.566808c18.453787-16.580085 18.453787-46.537532 0-66.189617l-66.886808-71.157107a13.617021 13.617021 0 0 1-3.594894-12.288 12.462298 12.462298 0 0 1 7.886979-9.499234 164.145021 164.145021 0 0 1 65.797447-10.022127c47.060426 2.004426 92.39966 22.440851 127.041362 57.888681C703.297362 127.847489 721.380766 199.658213 700.617532 261.446809l207.697702 218.525957c26.079319 27.40834 26.471489 84.098723-12.179064 112.204255-19.259915 13.900255-45.992851 18.976681-73.009021 14.030979-20.327489-3.747404-38.258383-12.963404-49.217362-25.142468l-194.843234-216.652255c-16.994043 2.941277-34.641702 3.224511-52.158638 0.806127-45.862128-6.144-87.998638-29.412766-119.154383-64.991319-46.406809-53.356936-59.78417-125.298383-34.903149-185.344z" fill="#E3B845" p-id="1741"></path><path d="M801.601362 561.674894c5.076426 5.490383 15.381787 10.305362 27.01617 12.309787 18.301277 3.202723 37.038298-0.413957 49.740255-9.760681 26.602213-19.673872 23.813447-56.864681 12.026553-69.414128l-88.782978 66.865022zM378.340766 112.204255a11.939404 11.939404 0 0 1 9.216-7.233361c4.139574-0.653617 8.562383 1.089362 11.50366 4.422808l64.599148 71.026383c8.562383 9.477447 20.196766 15.251064 32.484766 16.427575a43.051574 43.051574 0 0 0 33.029447-10.566809c18.453787-16.710809 18.453787-46.537532 0-66.189617L462.330553 48.955915a13.617021 13.617021 0 0 1-3.594893-12.309787 12.723745 12.723745 0 0 1 7.886978-9.499234 166.51983 166.51983 0 0 1 65.797447-10.022128c47.060426 2.004426 92.39966 22.440851 127.019575 57.910468 49.369872 50.132426 67.431489 121.943149 46.690042 183.731745l207.697702 218.525957c26.057532 27.40834 26.471489 84.098723-12.179064 112.204255-19.259915 13.900255-45.992851 18.976681-73.009021 14.030979-20.327489-3.747404-38.258383-12.963404-49.239149-25.142468l-194.821447-216.782979c-16.994043 2.941277-34.641702 3.224511-52.158638 0.806128-45.883915-6.144-88.020426-29.412766-119.17617-64.991319-46.406809-53.226213-59.914894-125.298383-34.881362-185.213277z" fill="#E3B845" p-id="1742"></path><path d="M741.947915 591.893787c5.076426 5.490383 15.381787 10.305362 27.01617 12.309787 18.301277 3.202723 37.038298-0.413957 49.740255-9.76068 26.624-19.652085 23.813447-56.842894 12.048341-69.414128l-88.804766 66.886808zM318.556596 142.423149a11.939404 11.939404 0 0 1 9.216-7.211575c4.139574-0.675404 8.562383 1.067574 11.503659 4.401022l64.599149 71.026383c8.562383 9.477447 20.196766 15.251064 32.506553 16.449361a43.051574 43.051574 0 0 0 33.029447-10.566808c18.453787-16.732596 18.453787-46.537532 0-66.211404l-66.886808-71.135319a13.617021 13.617021 0 0 1-3.594894-12.309788 12.723745 12.723745 0 0 1 7.886979-9.499234 166.51983 166.51983 0 0 1 65.797447-10.022127c47.060426 2.004426 92.39966 22.462638 127.041361 57.910468 49.348085 50.154213 67.409702 121.964936 46.668256 183.731744l207.697702 218.525958c26.079319 27.40834 26.471489 84.120511-12.179064 112.204255-19.259915 13.900255-45.992851 18.998468-73.009021 14.030979-20.327489-3.725617-38.258383-12.963404-49.217362-25.142468l-194.712511-216.782979c-16.994043 2.963064-34.641702 3.224511-52.158638 0.806128-45.862128-6.144-87.998638-29.412766-119.154383-64.991319-46.406809-53.226213-59.914894-125.298383-35.033872-185.19149z" fill="#FFCB3C" p-id="1743"></path></svg>