<?xml version="1.0" standalone="no"?><!DOCTYPE svg PUBLIC "-//W3C//DTD SVG 1.1//EN" "http://www.w3.org/Graphics/SVG/1.1/DTD/svg11.dtd"><svg t="1774632730650" class="icon" viewBox="0 0 1365 1024" version="1.1" xmlns="http://www.w3.org/2000/svg" p-id="1383" xmlns:xlink="http://www.w3.org/1999/xlink" width="266.6015625" height="200"><path d="M1024 136.533333v778.24c0 47.786667-38.684444 86.471111-86.471111 86.471111H336.782222c-47.786667 0-86.471111-38.684444-86.471111-86.471111V131.982222C250.311111 84.195556 288.995556 45.511111 336.782222 45.511111H932.977778c50.062222 0 91.022222 40.96 91.022222 91.022222z" fill="#E6ECF5" p-id="1384"></path><path d="M1001.244444 1001.244444H295.822222c-50.062222 0-91.022222-40.96-91.022222-91.022222V91.022222c0-50.062222 40.96-91.022222 91.022222-91.022222h614.4c50.062222 0 91.022222 40.96 91.022222 91.022222v910.222222zM295.822222 13.653333C252.586667 13.653333 218.453333 47.786667 218.453333 91.022222v819.2c0 43.235556 34.133333 77.368889 77.368889 77.368889h691.768889V91.022222c0-43.235556-34.133333-77.368889-77.368889-77.368889H295.822222z" fill="#182756" p-id="1385"></path><path d="M341.333333 43.235556l22.755556 2.275555-2.275556 942.08h-50.062222c-38.684444 0-68.266667-29.582222-68.266667-68.266667V134.257778c0-50.062222 40.96-91.022222 91.022223-91.022222h6.826666z" fill="#C3D3EE" p-id="1386"></path><path d="M341.333333 1001.244444h-45.511111c-50.062222 0-91.022222-40.96-91.022222-91.022222V91.022222c0-50.062222 40.96-91.022222 91.022222-91.022222h45.511111v1001.244444zM295.822222 13.653333C252.586667 13.653333 218.453333 47.786667 218.453333 91.022222v819.2c0 43.235556 34.133333 77.368889 77.368889 77.368889h31.857778V13.653333H295.822222z" fill="#182756" p-id="1387"></path><path d="M341.333333 1001.244444h-45.511111c-50.062222 0-91.022222-40.96-91.022222-91.022222V91.022222c0-50.062222 40.96-91.022222 91.022222-91.022222h45.511111v1001.244444zM295.822222 13.653333C252.586667 13.653333 218.453333 47.786667 218.453333 91.022222v819.2c0 43.235556 34.133333 77.368889 77.368889 77.368889h31.857778V13.653333H295.822222z" fill="#182756" p-id="1388"></path><path d="M91.022222 994.417778h1262.933334v13.653333H91.022222zM0 994.417778h65.991111v13.653333H0z" fill="#182756" p-id="1389"></path><path d="M637.155556 250.311111h45.511111c50.062222 0 91.022222 40.96 91.022222 91.022222v45.511111c0 63.715556-50.062222 113.777778-113.777778 113.777778s-113.777778-50.062222-113.777778-113.777778v-45.511111c0-50.062222 40.96-91.022222 91.022223-91.022222z" fill="#FFDED4" p-id="1390"></path><path d="M659.911111 500.622222c-63.715556 0-113.777778-50.062222-113.777778-113.777778v-45.511111c0-50.062222 40.96-91.022222 91.022223-91.022222h45.511111c50.062222 0 91.022222 40.96 91.022222 91.022222v45.511111c0 63.715556-50.062222 113.777778-113.777778 113.777778z m-22.755555-236.657778c-43.235556 0-77.368889 34.133333-77.368889 77.368889v45.511111c0 54.613333 45.511111 100.124444 100.124444 100.124445 54.613333 0 100.124444-45.511111 100.124445-100.124445v-45.511111c0-43.235556-34.133333-77.368889-77.368889-77.368889h-45.511111z" fill="#182756" p-id="1391"></path><path d="M568.888889 523.377778h182.044444c50.062222 0 91.022222 40.96 91.022223 91.022222v113.777778H477.866667v-113.777778c0-50.062222 40.96-91.022222 91.022222-91.022222z" fill="#FC3A76" p-id="1392"></path><path d="M841.955556 728.177778H477.866667v-113.777778c0-50.062222 40.96-91.022222 91.022222-91.022222h182.044444c50.062222 0 91.022222 40.96 91.022223 91.022222v113.777778z m-350.435556-13.653334h336.782222V614.4c0-43.235556-34.133333-77.368889-77.368889-77.368889h-182.044444c-43.235556 0-77.368889 34.133333-77.368889 77.368889v100.124444z" fill="#182756" p-id="1393"></path><path d="M907.946667 864.711111l-50.062223 43.235556c-4.551111 2.275556-9.102222 4.551111-13.653333 4.551111-13.653333 0-22.755556-9.102222-22.755555-22.755556V614.4c0-50.062222 40.96-91.022222 91.022222-91.022222h341.333333c50.062222 0 91.022222 40.96 91.022222 91.022222v159.288889c0 50.062222-40.96 91.022222-91.022222 91.022222H907.946667z" fill="#FFFFFF" p-id="1394"></path><path d="M953.457778 878.364444l-50.062222 43.235556c-4.551111 2.275556-9.102222 4.551111-13.653334 4.551111-13.653333 0-22.755556-9.102222-22.755555-22.755555V659.911111c0-50.062222 40.96-91.022222 91.022222-91.022222h314.026667c50.062222 0 91.022222 40.96 91.022222 91.022222v127.431111c0 50.062222-40.96 91.022222-91.022222 91.022222h-318.577778z" fill="#6378FF" p-id="1395"></path><path d="M1287.964444 571.164444c-430.08 38.684444-418.702222 318.577778-418.702222 332.231112 0 6.826667-2.275556-65.991111-6.826666-223.004445V659.911111c0-50.062222 40.96-91.022222 91.022222-91.022222h314.026666c9.102222 0 15.928889 0 20.48 2.275555z" fill="#7F94FF" p-id="1396"></path><path d="M841.955556 912.497778c-13.653333 0-22.755556-9.102222-22.755556-22.755556V614.4c0-50.062222 40.96-91.022222 91.022222-91.022222h341.333334c50.062222 0 91.022222 40.96 91.022222 91.022222v159.288889c0 50.062222-40.96 91.022222-91.022222 91.022222H907.946667l-50.062223 40.96c-4.551111 4.551111-11.377778 6.826667-15.928888 6.826667z m-9.102223-61.44v38.684444c0 6.826667 9.102222 11.377778 15.928889 6.826667l52.337778-43.235556 6.826667-2.275555H1251.555556c43.235556 0 77.368889-34.133333 77.368888-77.368889v-159.288889c0-43.235556-34.133333-77.368889-77.368888-77.368889H910.222222c-43.235556 0-77.368889 34.133333-77.368889 77.368889v236.657778z" fill="#182756" p-id="1397"></path><path d="M978.488889 705.422222m-22.755556 0a22.755556 22.755556 0 1 0 45.511111 0 22.755556 22.755556 0 1 0-45.511111 0Z" fill="#FFFFFF" p-id="1398"></path><path d="M1069.511111 705.422222m-22.755555 0a22.755556 22.755556 0 1 0 45.511111 0 22.755556 22.755556 0 1 0-45.511111 0Z" fill="#FFFFFF" p-id="1399"></path><path d="M1160.533333 705.422222m-22.755555 0a22.755556 22.755556 0 1 0 45.511111 0 22.755556 22.755556 0 1 0-45.511111 0Z" fill="#FFFFFF" p-id="1400"></path><path d="M603.022222 227.555556H796.444444v56.888888c0 31.857778-25.031111 56.888889-56.888888 56.888889H546.133333v-56.888889c0-31.857778 25.031111-56.888889 56.888889-56.888888z" fill="#FFFFFF" p-id="1401"></path><path d="M625.777778 250.311111H796.444444v34.133333c0 31.857778-25.031111 56.888889-56.888888 56.888889H568.888889v-34.133333c0-31.857778 25.031111-56.888889 56.888889-56.888889z" fill="#6378FF" p-id="1402"></path><path d="M739.555556 341.333333H546.133333v-56.888889c0-31.857778 25.031111-56.888889 56.888889-56.888888H796.444444v56.888888c0 31.857778-25.031111 56.888889-56.888888 56.888889z m-179.768889-13.653333h179.768889c22.755556 0 43.235556-20.48 43.235555-43.235556v-43.235555h-179.768889c-22.755556 0-43.235556 20.48-43.235555 43.235555v43.235556zM250.311111 204.8h45.511111v22.755556h-45.511111zM250.311111 386.844444h45.511111v22.755556h-45.511111z" fill="#182756" p-id="1403"></path><path d="M250.311111 568.888889h45.511111v22.755555h-45.511111z" fill="#182756" p-id="1404"></path><path d="M250.311111 750.933333h45.511111v22.755556h-45.511111z" fill="#182756" p-id="1405"></path></svg>